<mxfile host="drawio-plugin" modified="2022-11-24T05:39:57.651Z" agent="5.0 (Windows NT 6.2; Win64; x64) AppleWebKit/537.36 (KHTML, like Gecko) Chrome/97.0.4692.45 Safari/537.36" etag="PbHRsfn-Jd8DU-FnFy8m" version="20.5.3" type="embed"><diagram id="dCXD1tE2VXXDs69gZL1h" name="第 1 页"><mxGraphModel dx="1197" dy="742" grid="1" gridSize="10" guides="1" tooltips="1" connect="1" arrows="1" fold="1" page="1" pageScale="1" pageWidth="827" pageHeight="1169" math="0" shadow="0"><root><mxCell id="0"/><mxCell id="1" parent="0"/><mxCell id="7" value="" style="rounded=0;whiteSpace=wrap;html=1;" vertex="1" parent="1"><mxGeometry x="10" y="480" width="780" height="450" as="geometry"/></mxCell><mxCell id="oXBbXpf-bMIwCssNUEXc-5" value="" style="edgeStyle=orthogonalEdgeStyle;rounded=0;orthogonalLoop=1;jettySize=auto;html=1;" parent="1" source="oXBbXpf-bMIwCssNUEXc-1" target="oXBbXpf-bMIwCssNUEXc-4" edge="1"><mxGeometry relative="1" as="geometry"/></mxCell><mxCell id="oXBbXpf-bMIwCssNUEXc-1" value="&lt;div&gt;初始&lt;/div&gt;&lt;div&gt;URL列表&lt;/div&gt;" style="rounded=0;whiteSpace=wrap;html=1;" parent="1" vertex="1"><mxGeometry x="80" y="80" width="80" height="40" as="geometry"/></mxCell><mxCell id="3" style="edgeStyle=orthogonalEdgeStyle;rounded=0;orthogonalLoop=1;jettySize=auto;html=1;entryX=-0.006;entryY=0.8;entryDx=0;entryDy=0;entryPerimeter=0;" parent="1" source="oXBbXpf-bMIwCssNUEXc-4" target="oXBbXpf-bMIwCssNUEXc-23" edge="1"><mxGeometry relative="1" as="geometry"/></mxCell><mxCell id="oXBbXpf-bMIwCssNUEXc-4" value="&lt;div&gt;队列&lt;/div&gt;&lt;div&gt;URL列表&lt;/div&gt;" style="whiteSpace=wrap;html=1;rounded=0;" parent="1" vertex="1"><mxGeometry x="60" y="200" width="120" height="60" as="geometry"/></mxCell><mxCell id="6" style="edgeStyle=orthogonalEdgeStyle;rounded=0;orthogonalLoop=1;jettySize=auto;html=1;entryX=0.5;entryY=1;entryDx=0;entryDy=0;" parent="1" source="oXBbXpf-bMIwCssNUEXc-22" target="oXBbXpf-bMIwCssNUEXc-4" edge="1"><mxGeometry relative="1" as="geometry"><Array as="points"><mxPoint x="510" y="330"/><mxPoint x="120" y="330"/></Array></mxGeometry></mxCell><mxCell id="oXBbXpf-bMIwCssNUEXc-22" value="爬虫协程" style="swimlane;fontStyle=0;childLayout=stackLayout;horizontal=1;startSize=26;horizontalStack=0;resizeParent=1;resizeParentMax=0;resizeLast=0;collapsible=1;marginBottom=0;align=center;fontSize=14;" parent="1" vertex="1"><mxGeometry x="430" y="180" width="160" height="116" as="geometry"><mxRectangle x="430" y="180" width="100" height="30" as="alternateBounds"/></mxGeometry></mxCell><mxCell id="oXBbXpf-bMIwCssNUEXc-23" value="访问" style="text;strokeColor=none;fillColor=none;spacingLeft=4;spacingRight=4;overflow=hidden;rotatable=0;points=[[0,0.5],[1,0.5]];portConstraint=eastwest;fontSize=12;" parent="oXBbXpf-bMIwCssNUEXc-22" vertex="1"><mxGeometry y="26" width="160" height="30" as="geometry"/></mxCell><mxCell id="oXBbXpf-bMIwCssNUEXc-24" value="Item 2" style="text;strokeColor=none;fillColor=none;spacingLeft=4;spacingRight=4;overflow=hidden;rotatable=0;points=[[0,0.5],[1,0.5]];portConstraint=eastwest;fontSize=12;" parent="oXBbXpf-bMIwCssNUEXc-22" vertex="1"><mxGeometry y="56" width="160" height="30" as="geometry"/></mxCell><mxCell id="oXBbXpf-bMIwCssNUEXc-25" value="Item 3" style="text;strokeColor=none;fillColor=none;spacingLeft=4;spacingRight=4;overflow=hidden;rotatable=0;points=[[0,0.5],[1,0.5]];portConstraint=eastwest;fontSize=12;" parent="oXBbXpf-bMIwCssNUEXc-22" vertex="1"><mxGeometry y="86" width="160" height="30" as="geometry"/></mxCell><mxCell id="19" style="edgeStyle=orthogonalEdgeStyle;rounded=0;orthogonalLoop=1;jettySize=auto;html=1;" edge="1" parent="1" source="10"><mxGeometry relative="1" as="geometry"><mxPoint x="100" y="660" as="targetPoint"/></mxGeometry></mxCell><mxCell id="10" value="" style="rounded=0;whiteSpace=wrap;html=1;" vertex="1" parent="1"><mxGeometry x="20" y="550" width="30" height="220" as="geometry"/></mxCell><mxCell id="12" style="edgeStyle=orthogonalEdgeStyle;rounded=0;orthogonalLoop=1;jettySize=auto;html=1;entryX=0.5;entryY=0;entryDx=0;entryDy=0;" edge="1" parent="1" source="11" target="7"><mxGeometry relative="1" as="geometry"/></mxCell><mxCell id="11" value="one URL" style="rounded=0;whiteSpace=wrap;html=1;" vertex="1" parent="1"><mxGeometry x="340" y="390" width="120" height="20" as="geometry"/></mxCell><mxCell id="13" value="传入" style="text;html=1;align=center;verticalAlign=middle;resizable=0;points=[];autosize=1;strokeColor=none;fillColor=none;" vertex="1" parent="1"><mxGeometry x="389" y="430" width="50" height="30" as="geometry"/></mxCell><mxCell id="16" style="edgeStyle=orthogonalEdgeStyle;rounded=0;orthogonalLoop=1;jettySize=auto;html=1;" edge="1" parent="1" source="14" target="10"><mxGeometry relative="1" as="geometry"/></mxCell><mxCell id="14" value="AddURL()" style="whiteSpace=wrap;html=1;" vertex="1" parent="1"><mxGeometry x="350" y="480" width="100" height="40" as="geometry"/></mxCell><mxCell id="20" value="" style="edgeStyle=orthogonalEdgeStyle;rounded=0;orthogonalLoop=1;jettySize=auto;html=1;endArrow=diamond;endFill=1;" edge="1" parent="1" source="17" target="10"><mxGeometry relative="1" as="geometry"/></mxCell><mxCell id="17" value="分发URL服务" style="rounded=0;whiteSpace=wrap;html=1;" vertex="1" parent="1"><mxGeometry x="100" y="630" width="110" height="60" as="geometry"/></mxCell></root></mxGraphModel></diagram></mxfile>